Coordinates
version=1
nRows=43
nColumns=12
inDegrees=yes

Units are S.I. units (second, meters, Newtons, ...)
Angles are in degrees

endheader
time	SC_y	SC_z	SC_x	AC_y	AC_z	AC_x	GH_y	GH_z	GH_yy	EL_x	PS_y
       0.0              -25.74          28.67          51.39           44.6         -14.62          2.385         -101.4         -1.365          110.2          109.3          81.04
  0.009802              -25.74          28.67          51.39           44.6         -14.62          2.382         -101.4         -1.363          110.2          109.3          81.03
    0.0196              -25.74          28.67          51.38           44.6         -14.62           2.38         -101.4         -1.362          110.2          109.3          81.02
   0.02941              -25.75          28.68          51.38           44.6         -14.62          2.377         -101.4          -1.36          110.2          109.2          81.01
   0.03921              -25.75          28.68          51.38           44.6         -14.62          2.374         -101.4         -1.359          110.1          109.2          81.01
   0.04901              -25.75          28.68          51.37           44.6         -14.62          2.371         -101.4         -1.357          110.1          109.2           81.0
   0.05881              -25.76          28.68          51.37           44.6         -14.62          2.368         -101.4         -1.355          110.1          109.2          80.99
   0.06861              -25.76          28.68          51.36           44.6         -14.61          2.365         -101.4         -1.353          110.1          109.2          80.98
   0.07842              -25.77          28.68          51.36           44.6         -14.61          2.361         -101.4         -1.351          110.1          109.2          80.96
   0.08822              -25.77          28.68          51.35           44.6         -14.61          2.357         -101.4         -1.349          110.1          109.1          80.95
   0.09802              -25.78          28.68          51.35          44.59         -14.61          2.353         -101.4         -1.346          110.1          109.1          80.94
    0.1078              -25.78          28.68          51.34          44.59         -14.61          2.348         -101.4         -1.344          110.0          109.1          80.92
    0.1176              -25.79          28.69          51.34          44.59          -14.6          2.343         -101.4         -1.341          110.0          109.1          80.91
    0.1274               -25.8          28.69          51.33          44.59          -14.6          2.338         -101.4         -1.338          110.0          109.0          80.89
    0.1372              -25.81          28.69          51.32          44.59          -14.6          2.332         -101.4         -1.334          110.0          109.0          80.87
     0.147              -25.81          28.69          51.31          44.59          -14.6          2.326         -101.4         -1.331          110.0          109.0          80.85
    0.1568              -25.82          28.69          51.31          44.59         -14.59          2.319         -101.4         -1.327          109.9          108.9          80.83
    0.1666              -25.83          28.69           51.3          44.58         -14.59          2.312         -101.4         -1.322          109.9          108.9          80.81
    0.1764              -25.84           28.7          51.28          44.58         -14.58          2.304         -101.4         -1.317          109.9          108.8          80.79
    0.1862              -25.86           28.7          51.27          44.58         -14.58          2.295         -101.4         -1.312          109.8          108.8          80.76
     0.196              -25.87           28.7          51.26          44.58         -14.57          2.285         -101.4         -1.307          109.8          108.7          80.73
    0.2058              -25.88           28.7          51.25          44.57         -14.57          2.275         -101.4           -1.3          109.8          108.7          80.69
    0.2156               -25.9          28.71          51.23          44.57         -14.56          2.263         -101.4         -1.293          109.7          108.6          80.66
    0.2254              -25.92          28.71          51.21          44.57         -14.56           2.25         -101.4         -1.286          109.7          108.5          80.62
    0.2352              -25.94          28.72          51.19          44.56         -14.55          2.235         -101.4         -1.277          109.6          108.5          80.57
     0.245              -25.96          28.72          51.17          44.56         -14.54          2.219         -101.4         -1.268          109.5          108.4          80.52
    0.2549              -25.98          28.73          51.15          44.55         -14.53          2.201         -101.4         -1.257          109.5          108.3          80.46
    0.2647              -26.01          28.73          51.12          44.55         -14.52          2.181         -101.4         -1.245          109.4          108.2           80.4
    0.2745              -26.04          28.74          51.09          44.54         -14.51          2.158         -101.4         -1.232          109.3          108.0          80.33
    0.2843              -26.07          28.75          51.06          44.53          -14.5          2.131         -101.4         -1.216          109.2          107.9          80.25
    0.2941              -26.11          28.75          51.02          44.53         -14.48          2.102         -101.4         -1.199          109.1          107.7          80.15
    0.3039              -26.16          28.76          50.97          44.52         -14.47          2.067         -101.4         -1.179          108.9          107.5          80.05
    0.3137              -26.21          28.78          50.92          44.51         -14.45          2.028         -101.4         -1.156          108.8          107.3          79.92
    0.3235              -26.27          28.79          50.86          44.49         -14.42          1.982         -101.4         -1.129          108.6          107.0          79.78
    0.3333              -26.35           28.8          50.79          44.48          -14.4          1.928         -101.4         -1.097          108.4          106.7          79.61
    0.3431              -26.43          28.82          50.71          44.46         -14.37          1.864         -101.4          -1.06          108.1          106.4          79.41
    0.3529              -26.53          28.84          50.61          44.44         -14.33          1.789         -101.4         -1.016          107.8          106.0          79.18
    0.3627              -26.65          28.87          50.49          44.41         -14.28          1.699         -101.4        -0.9628          107.5          105.5           78.9
    0.3725               -26.8           28.9          50.35          44.38         -14.23          1.589         -101.4        -0.8987          107.0          104.9          78.56
    0.3823              -26.98          28.94          50.17          44.35         -14.16          1.456         -101.4        -0.8205          106.5          104.1          78.14
    0.3921               -27.2          28.99          49.96           44.3         -14.08          1.291         -101.4        -0.7239          105.8          103.2          77.63
    0.4019              -27.47          29.04          49.69          44.25         -13.98          1.085         -101.4        -0.6034          105.0          102.1          76.99
    0.4117              -27.82          29.12          49.35          44.17         -13.85         0.8265         -101.4        -0.4516          104.0          100.6          76.18
